<?xml version="1.0" encoding="UTF-8"?>
<!DOCTYPE svg PUBLIC "-//W3C//DTD SVG 1.1//EN" "http://www.w3.org/Graphics/SVG/1.1/DTD/svg11.dtd">
<!-- Creator: CorelDRAW 2019 (64-Bit) -->
<svg xmlns="http://www.w3.org/2000/svg" xml:space="preserve" width="100%" height="100%" version="1.1" style="shape-rendering:geometricPrecision; text-rendering:geometricPrecision; image-rendering:optimizeQuality; fill-rule:evenodd; clip-rule:evenodd"
viewBox="0 0 1467.382 338.822"
 xmlns:xlink="http://www.w3.org/1999/xlink">
 <defs>
  <style type="text/css">
   <![CDATA[
    .fil2 {fill:#E8E8E8}
    .fil3 {fill:#DC3483;fill-rule:nonzero}
    .fil1 {fill:#DC3483;fill-rule:nonzero}
    .fil0 {fill:#E8E8E8;fill-rule:nonzero}
   ]]>
  </style>
 </defs>
 <g id="Layer_x0020_1">
  <metadata id="CorelCorpID_0Corel-Layer"/>
  <g id="_2101357427680">
   <path class="fil0" d="M468.61 47.581c0.743,1.751 1.115,3.677 1.115,5.772l0 187.821c0,4.137 -1.398,7.658 -4.191,10.555 -2.793,2.896 -6.467,4.346 -11.021,4.346 -4.553,0 -8.279,-1.398 -11.176,-4.191 -2.896,-2.793 -4.346,-6.364 -4.346,-10.71l0 -143.737 -60.227 91.271c-1.298,1.967 -3.259,3.416 -5.432,4.657 -2.173,1.241 -4.389,1.552 -6.675,1.552 -2.08,0 -4.192,-0.312 -6.364,-1.552 -2.172,-1.241 -4.157,-2.673 -5.433,-4.657l-60.537 -94.065 0 146.531c0,4.344 -1.294,7.916 -3.881,10.71 -2.587,2.794 -6.054,4.191 -10.4,4.191 -4.139,0 -7.502,-1.397 -10.089,-4.191 -2.587,-2.794 -3.881,-6.364 -3.881,-10.71l0 -164.673c-83.871,3.278 -168.094,-4.685 -252.726,-25.949 -9.437,-2.359 -15.175,-11.923 -12.816,-21.36 2.359,-9.437 11.923,-15.175 21.36,-12.816 81.78,20.547 163.041,28.195 243.858,24.945 80.932,-3.256 161.692,-17.475 242.305,-40.643 9.361,-2.663 19.11,2.766 21.773,12.127 2.663,9.361 -2.766,19.11 -12.127,21.773 -16.343,4.697 -32.706,9.035 -49.089,13.003zm182.4 121.204c0,16.143 -3.621,30.631 -10.865,43.462 -7.244,12.832 -17.127,22.87 -29.648,30.114 -12.521,7.244 -26.336,10.865 -41.445,10.865 -15.108,0 -28.923,-3.621 -41.444,-10.865 -12.522,-7.244 -22.404,-17.282 -29.648,-30.114 -7.244,-12.831 -10.866,-27.319 -10.866,-43.462 0,-16.143 3.622,-30.734 10.866,-43.773 7.244,-13.039 17.126,-23.18 29.648,-30.424 12.521,-7.244 26.336,-10.866 41.444,-10.866 15.109,0 28.924,3.622 41.445,10.866 12.521,7.244 22.404,17.385 29.648,30.424 7.244,13.039 10.865,27.63 10.865,43.773zm-29.492 0c0,-11.176 -2.328,-21.162 -6.985,-29.958 -4.657,-8.796 -10.969,-15.626 -18.937,-20.49 -7.968,-4.863 -16.816,-7.295 -26.544,-7.295 -9.727,0 -18.575,2.432 -26.543,7.295 -7.968,4.864 -14.28,11.694 -18.937,20.49 -4.657,8.796 -6.985,18.782 -6.985,29.958 0,10.969 2.328,20.8 6.985,29.492 4.657,8.693 10.969,15.471 18.937,20.335 7.968,4.863 16.816,7.295 26.543,7.295 9.728,0 18.576,-2.432 26.544,-7.295 7.968,-4.864 14.28,-11.642 18.937,-20.335 4.657,-8.692 6.985,-18.523 6.985,-29.492zm192.107 -33.772c1.199,3.533 0.938,7.041 -0.784,10.522 -1.722,3.482 -4.408,5.957 -8.055,7.425l-101.374 40.803c6.985,13.475 16.834,22.562 29.545,27.262 12.713,4.7 25.789,4.345 39.228,-1.064 9.217,-3.71 16.163,-8.068 20.841,-13.074 4.678,-5.007 8.375,-10.51 11.091,-16.511 2.184,-2.887 4.62,-4.872 7.309,-5.954 3.263,-1.313 6.464,-1.263 9.599,0.152 3.135,1.416 5.321,3.659 6.557,6.731 1.623,4.032 1.171,8.453 -1.355,13.263 -3.327,7.809 -8.825,15.487 -16.496,23.037 -7.67,7.549 -16.305,13.255 -25.904,17.119 -15.553,6.26 -30.546,8.502 -44.981,6.727 -14.435,-1.776 -27.225,-7.224 -38.372,-16.347 -11.145,-9.123 -19.694,-21.077 -25.644,-35.86 -6.492,-16.128 -8.878,-31.621 -7.162,-46.479 1.717,-14.857 6.685,-27.734 14.906,-38.627 8.22,-10.894 18.569,-18.853 31.049,-23.877 12.288,-4.946 25.083,-6.414 38.385,-4.405 13.302,2.008 25.458,7.266 36.468,15.774 11.011,8.509 19.392,19.636 25.149,33.383zm-89.801 -19.408c-10.751,4.328 -18.846,11.099 -24.284,20.316 -5.437,9.216 -6.854,20.663 -4.25,34.339l84.958 -34.196 -0.927 -2.303c-5.056,-9.79 -12.977,-16.306 -23.764,-19.55 -10.787,-3.244 -21.365,-2.779 -31.733,1.394z"/>
   <path class="fil1" d="M867.045 65.085l3.861 64.147 76.232 -4.588c4.338,-0.261 7.982,0.867 10.933,3.385 2.95,2.517 4.556,5.946 4.817,10.284 0.224,3.718 -0.978,7.004 -3.605,9.858 -2.627,2.853 -6.11,4.41 -10.448,4.672l-76.232 4.588 4.886 81.191c0.249,4.131 -1.038,7.733 -3.86,10.806 -2.821,3.072 -6.298,4.733 -10.429,4.982 -4.338,0.261 -8.041,-0.968 -11.108,-3.686 -3.065,-2.719 -4.723,-6.143 -4.972,-10.275l-11.265 -187.171c-0.248,-4.132 0.987,-7.731 3.704,-10.798 2.719,-3.066 6.144,-4.724 10.276,-4.972l105.671 -6.36c4.338,-0.261 7.983,0.867 10.933,3.385 2.951,2.518 4.557,5.946 4.818,10.284 0.223,3.719 -1.026,7.06 -3.751,10.023 -2.724,2.963 -6.153,4.569 -10.284,4.817l-90.177 5.428z"/>
   <path class="fil1" d="M1120.874 93.16c4.312,0.541 7.68,2.372 10.105,5.492 2.424,3.12 3.353,6.938 2.787,11.456l-16.768 133.687c-0.515,4.107 -2.339,7.424 -5.472,9.951 -3.133,2.527 -6.855,3.521 -11.167,2.98 -4.314,-0.541 -7.63,-2.365 -9.952,-5.472 -2.322,-3.107 -3.212,-6.817 -2.671,-11.129l1.004 -8.009c-6.241,6.518 -14.298,11.712 -24.169,15.585 -9.872,3.871 -20.147,5.138 -30.826,3.798 -13.964,-1.751 -26.194,-6.935 -36.691,-15.552 -10.495,-8.617 -18.172,-19.748 -23.031,-33.395 -4.859,-13.645 -6.285,-28.477 -4.275,-44.496 2.009,-16.017 7.053,-30.037 15.132,-42.06 8.078,-12.025 18.215,-20.921 30.411,-26.692 12.196,-5.771 25.071,-7.807 38.624,-6.107 10.884,1.365 20.714,4.893 29.491,10.582 8.777,5.69 15.501,12.374 20.17,20.051l0.927 -7.392c0.541,-4.313 2.326,-7.739 5.357,-10.279 3.03,-2.541 6.7,-3.54 11.014,-2.999zm-80.34 131.658c9.651,1.21 18.534,-0.178 26.647,-4.168 8.114,-3.988 14.817,-10.031 20.108,-18.127 5.291,-8.098 8.619,-17.587 9.984,-28.472 1.34,-10.678 0.446,-20.594 -2.682,-29.747 -3.128,-9.152 -8.124,-16.715 -14.989,-22.686 -6.864,-5.971 -15.122,-9.562 -24.774,-10.772 -9.652,-1.211 -18.535,0.177 -26.648,4.166 -8.114,3.989 -14.817,10.031 -20.108,18.128 -5.291,8.097 -8.619,17.587 -9.984,28.471 -1.366,10.885 -0.484,20.902 2.644,30.056 3.127,9.152 8.13,16.663 15.007,22.531 6.877,5.87 15.142,9.409 24.795,10.62z"/>
   <path class="fil1" d="M1222.681 78.786c37.05,-3.898 57.913,16.384 62.591,60.842l8.835 83.979c0.433,4.116 -0.588,7.761 -3.063,10.935 -2.477,3.174 -5.876,4.989 -10.198,5.443 -4.116,0.433 -7.716,-0.645 -10.798,-3.234 -3.081,-2.589 -4.839,-5.942 -5.272,-10.058l-8.803 -83.67c-1.277,-12.144 -5.074,-21.526 -11.389,-28.145 -6.315,-6.619 -15.75,-9.268 -28.306,-7.947 -8.234,0.866 -15.505,3.452 -21.816,7.758 -6.31,4.305 -11.05,9.694 -14.219,16.168 -3.169,6.472 -4.375,13.31 -3.617,20.514l8.803 83.67c0.433,4.116 -0.588,7.761 -3.064,10.935 -2.475,3.174 -5.874,4.988 -10.196,5.443 -4.323,0.455 -7.968,-0.566 -10.936,-3.063 -2.968,-2.498 -4.679,-5.907 -5.134,-10.229l-13.903 -132.143c-0.433,-4.116 0.588,-7.761 3.064,-10.936 2.475,-3.173 5.771,-4.977 9.888,-5.41 4.322,-0.455 8.024,0.613 11.106,3.202 3.082,2.589 4.839,5.942 5.272,10.058l1.137 10.807c4.486,-8.797 11.216,-16.529 20.192,-23.196 8.975,-6.667 18.918,-10.575 29.826,-11.723z"/>
   <path class="fil1" d="M1453.513 93.363c4.336,0.3 7.801,1.939 10.396,4.919 2.595,2.98 3.735,6.741 3.422,11.284l-9.413 136.271c-1.155,16.724 -5.683,30.467 -13.583,41.228 -7.901,10.76 -18.127,18.405 -30.68,22.932 -12.553,4.526 -26.468,6.262 -41.748,5.206 -8.258,-0.57 -17.812,-2.681 -28.658,-6.336 -10.847,-3.653 -17.712,-7.135 -20.595,-10.446 -6.172,-3.746 -9.087,-8.097 -8.745,-13.052 0.085,-1.238 0.613,-2.862 1.581,-4.87 2.627,-5.005 6.625,-7.322 11.994,-6.951 2.684,0.186 5.532,1.005 8.544,2.458 16.075,7.541 28.758,11.633 38.05,12.275 16.518,1.141 29.439,-1.961 38.764,-9.304 9.324,-7.343 14.463,-17.931 15.419,-31.765l1.155 -16.724c-4.893,7.753 -12.648,14.167 -23.268,19.242 -10.62,5.075 -21.608,7.22 -32.964,6.436 -14.246,-0.984 -27.004,-5.495 -38.274,-13.535 -11.27,-8.039 -19.815,-18.743 -25.633,-32.111 -5.819,-13.368 -8.173,-28.104 -7.061,-44.21 1.112,-16.104 5.47,-30.377 13.072,-42.818 7.601,-12.442 17.484,-21.872 29.65,-28.293 12.164,-6.421 25.267,-9.147 39.307,-8.177 11.355,0.784 21.759,4.096 31.21,9.936 9.451,5.839 16.707,12.668 21.769,20.486l0.685 -9.91c0.299,-4.337 1.891,-7.858 4.774,-10.563 2.884,-2.705 6.494,-3.907 10.83,-3.608zm-75.04 135.784c10.117,0.699 19.267,-1.107 27.448,-5.416 8.181,-4.311 14.794,-10.7 19.84,-19.169 5.044,-8.468 7.945,-18.174 8.701,-29.117 0.756,-10.943 -0.786,-20.904 -4.626,-29.882 -3.84,-8.979 -9.512,-16.216 -17.016,-21.714 -7.504,-5.498 -16.315,-8.595 -26.432,-9.294 -9.91,-0.684 -18.96,1.18 -27.148,5.593 -8.188,4.414 -14.805,10.854 -19.85,19.323 -5.046,8.468 -7.938,18.071 -8.68,28.807 -0.741,10.738 0.803,20.647 4.637,29.728 3.833,9.082 9.501,16.371 17.005,21.868 7.503,5.498 16.211,8.589 26.121,9.273z"/>
   <path class="fil2" d="M1108.231 268.156l184.058 0c2.486,0 4.52,2.033 4.52,4.52l0 61.626c0,2.486 -2.034,4.52 -4.52,4.52l-184.058 0c-2.486,0 -4.52,-2.034 -4.52,-4.52l0 -61.626c0,-2.487 2.034,-4.52 4.52,-4.52z"/>
   <path class="fil3" d="M1143.312 327.951c-1.594,0 -3.129,-0.118 -4.601,-0.351 -1.483,-0.236 -2.862,-0.587 -4.135,-1.053 -1.293,-0.474 -2.551,-1.097 -3.778,-1.863 -1.212,-0.757 -2.391,-1.65 -3.538,-2.67 -0.612,-0.543 -1.089,-1.134 -1.423,-1.777l0 -0.008c-0.37,-0.713 -0.56,-1.466 -0.56,-2.265 0,-0.645 0.128,-1.266 0.382,-1.858 0.239,-0.555 0.591,-1.074 1.054,-1.553 0.472,-0.49 1.001,-0.863 1.586,-1.121 0.601,-0.267 1.24,-0.401 1.91,-0.401 0.59,0 1.153,0.102 1.689,0.305l0.008 0c0.536,0.203 1.026,0.508 1.465,0.913 0.758,0.699 1.521,1.305 2.29,1.812 0.753,0.497 1.509,0.904 2.264,1.214 0.756,0.311 1.565,0.546 2.424,0.701 0.859,0.155 1.806,0.234 2.839,0.234 1.132,0 2.168,-0.128 3.102,-0.382l0.003 0.007c0.881,-0.24 1.693,-0.607 2.43,-1.098 0.665,-0.444 1.15,-0.915 1.446,-1.412 0.261,-0.434 0.39,-0.924 0.385,-1.463 -0.007,-0.737 -0.163,-1.384 -0.462,-1.937 -0.298,-0.552 -0.758,-1.035 -1.369,-1.445 -0.757,-0.507 -1.749,-0.991 -2.977,-1.441 -1.256,-0.46 -2.723,-0.873 -4.4,-1.226 -2.26,-0.476 -4.284,-1.095 -6.066,-1.866 -1.841,-0.798 -3.417,-1.757 -4.721,-2.884 -1.394,-1.206 -2.44,-2.645 -3.137,-4.314 -0.681,-1.633 -1.022,-3.464 -1.022,-5.492 0,-1.415 0.191,-2.757 0.57,-4.025 0.384,-1.284 0.96,-2.477 1.724,-3.574 0.753,-1.081 1.657,-2.042 2.708,-2.878 1.026,-0.817 2.195,-1.514 3.501,-2.083 1.284,-0.559 2.643,-0.98 4.074,-1.256 1.423,-0.275 2.91,-0.414 4.459,-0.414 1.392,0 2.758,0.116 4.095,0.343 1.325,0.227 2.621,0.571 3.886,1.03 1.222,0.444 2.341,0.979 3.365,1.588 1.09,0.649 2.041,1.365 2.867,2.133 0.612,0.569 1.102,1.167 1.456,1.814 0.407,0.743 0.62,1.513 0.62,2.33 0,0.631 -0.125,1.244 -0.375,1.834 -0.237,0.564 -0.581,1.081 -1.029,1.546 -0.471,0.489 -0.998,0.859 -1.577,1.108 -0.591,0.254 -1.222,0.382 -1.889,0.382 -0.499,0 -0.991,-0.077 -1.469,-0.242l-0.008 0c-0.505,-0.176 -0.959,-0.448 -1.349,-0.827 -0.451,-0.437 -0.991,-0.853 -1.624,-1.24 -0.636,-0.388 -1.369,-0.749 -2.205,-1.075 -0.861,-0.337 -1.69,-0.588 -2.481,-0.749 -0.76,-0.156 -1.522,-0.234 -2.283,-0.234 -1.241,0 -2.325,0.12 -3.25,0.359l-0.008 0c-0.86,0.222 -1.609,0.555 -2.245,0.997 -0.569,0.396 -0.983,0.831 -1.239,1.301 -0.244,0.448 -0.366,0.976 -0.366,1.582 0,1.326 0.52,2.332 1.558,3.015 0.704,0.464 1.607,0.906 2.708,1.318 1.13,0.423 2.449,0.808 3.959,1.146l0.008 0c1.69,0.379 3.218,0.778 4.576,1.2 1.407,0.439 2.667,0.913 3.778,1.429 1.191,0.553 2.253,1.22 3.181,1.996 0.936,0.783 1.743,1.69 2.419,2.716 0.691,1.049 1.204,2.236 1.538,3.558 0.322,1.276 0.483,2.681 0.483,4.212 0,1.408 -0.2,2.749 -0.601,4.017 -0.403,1.269 -1.006,2.461 -1.81,3.573 -0.781,1.083 -1.707,2.048 -2.776,2.894 -1.055,0.834 -2.24,1.545 -3.55,2.13 -1.297,0.578 -2.659,1.013 -4.08,1.302l-0.008 0c-1.433,0.291 -2.9,0.438 -4.399,0.438zm52.899 -48.362c0.685,0 1.327,0.12 1.92,0.36 0.619,0.249 1.162,0.626 1.627,1.127 0.447,0.474 0.782,1.023 1.003,1.635 0.213,0.588 0.32,1.215 0.32,1.873l0 23.959c0,1.79 -0.204,3.51 -0.609,5.154 -0.405,1.645 -1.017,3.204 -1.833,4.674 -0.814,1.468 -1.787,2.78 -2.917,3.932 -1.124,1.147 -2.409,2.138 -3.854,2.972 -1.434,0.827 -2.961,1.449 -4.579,1.864 -1.622,0.415 -3.308,0.624 -5.054,0.624 -1.781,0 -3.482,-0.206 -5.101,-0.616 -1.638,-0.415 -3.182,-1.038 -4.626,-1.865 -1.44,-0.824 -2.735,-1.819 -3.878,-2.98 -1.133,-1.151 -2.109,-2.462 -2.924,-3.931 -0.817,-1.47 -1.429,-3.028 -1.833,-4.673 -0.406,-1.645 -0.609,-3.364 -0.609,-5.155l0 -23.959c0,-0.686 0.123,-1.332 0.367,-1.935l0 -0.008c0.25,-0.616 0.627,-1.167 1.124,-1.647 0.483,-0.465 1.045,-0.82 1.68,-1.059 0.607,-0.231 1.259,-0.346 1.949,-0.346 0.656,0 1.284,0.126 1.882,0.376 0.575,0.239 1.107,0.594 1.59,1.06 0.497,0.479 0.876,1.023 1.133,1.624 0.259,0.609 0.39,1.256 0.39,1.935l0 23.959c0,0.935 0.102,1.799 0.305,2.588 0.2,0.784 0.508,1.534 0.919,2.246 0.415,0.717 0.894,1.349 1.435,1.895 0.545,0.549 1.153,1.018 1.823,1.402 0.667,0.383 1.373,0.675 2.114,0.873 0.718,0.192 1.472,0.289 2.26,0.289 0.846,0 1.642,-0.097 2.386,-0.289 0.749,-0.193 1.48,-0.49 2.19,-0.888 0.702,-0.394 1.33,-0.863 1.879,-1.404 0.552,-0.544 1.041,-1.176 1.465,-1.894 0.831,-1.409 1.248,-3.015 1.248,-4.818l0 -23.959c0,-0.649 0.102,-1.266 0.305,-1.85 0.213,-0.613 0.532,-1.158 0.951,-1.63 0.456,-0.505 0.999,-0.889 1.632,-1.147 0.598,-0.245 1.238,-0.368 1.92,-0.368zm37.984 21.651l0.267 0.18c1.097,0.757 2.075,1.662 2.933,2.714 0.902,1.106 1.576,2.371 2.021,3.792 0.431,1.379 0.647,2.896 0.647,4.547 0,2.565 -0.385,4.794 -1.155,6.685 -0.811,1.995 -2.042,3.602 -3.689,4.814 -1.526,1.123 -3.22,1.966 -5.079,2.527 -1.828,0.551 -3.805,0.827 -5.928,0.827l-16.035 0c-0.667,0 -1.306,-0.125 -1.912,-0.375 -0.61,-0.251 -1.153,-0.614 -1.624,-1.085 -0.471,-0.471 -0.834,-1.013 -1.084,-1.622 -0.25,-0.606 -0.375,-1.245 -0.375,-1.912l0 -37.686c0,-0.667 0.125,-1.306 0.375,-1.912 0.25,-0.609 0.613,-1.151 1.084,-1.622 0.472,-0.472 1.014,-0.835 1.624,-1.086 0.606,-0.249 1.245,-0.374 1.912,-0.374l16.035 0c2.095,0 3.968,0.268 5.617,0.804 1.724,0.559 3.191,1.413 4.399,2.558 1.214,1.157 2.124,2.557 2.723,4.197 0.576,1.578 0.865,3.366 0.865,5.36 0,1.167 -0.143,2.283 -0.429,3.345 -0.288,1.071 -0.723,2.082 -1.303,3.028 -0.523,0.854 -1.153,1.62 -1.889,2.296zm-6.805 -7.734c0,-0.748 -0.094,-1.386 -0.28,-1.909l0 -0.008c-0.159,-0.446 -0.391,-0.816 -0.693,-1.106 -0.315,-0.303 -0.706,-0.535 -1.169,-0.693l-0.008 0c-0.531,-0.182 -1.166,-0.273 -1.902,-0.273l-9.792 0 0 8.166 9.917 0c0.591,0 1.117,-0.095 1.579,-0.275l0.008 0c0.469,-0.183 0.9,-0.464 1.288,-0.831 0.337,-0.319 0.592,-0.709 0.764,-1.169 0.191,-0.516 0.288,-1.151 0.288,-1.902zm-3.24 24.08c0.946,0 1.774,-0.115 2.479,-0.343 0.655,-0.212 1.225,-0.528 1.706,-0.943 0.435,-0.376 0.766,-0.855 0.989,-1.433 0.249,-0.646 0.374,-1.444 0.374,-2.394 0,-1.706 -0.429,-2.939 -1.286,-3.693 -0.931,-0.821 -2.457,-1.232 -4.574,-1.232l-10.292 0 0 10.038 10.604 0zm33.869 10.365c-1.595,0 -3.129,-0.118 -4.601,-0.351 -1.474,-0.234 -2.85,-0.587 -4.128,-1.053 -1.305,-0.478 -2.566,-1.101 -3.785,-1.863 -1.213,-0.756 -2.392,-1.65 -3.539,-2.67 -0.611,-0.55 -1.089,-1.142 -1.423,-1.785 -0.369,-0.712 -0.559,-1.466 -0.559,-2.265 0,-0.647 0.127,-1.266 0.382,-1.858 0.239,-0.555 0.591,-1.073 1.053,-1.553 0.473,-0.489 1.002,-0.863 1.586,-1.121 0.602,-0.267 1.24,-0.401 1.911,-0.401 0.589,0 1.153,0.102 1.688,0.305 0.545,0.207 1.038,0.511 1.474,0.913 0.757,0.699 1.521,1.305 2.29,1.812 0.752,0.498 1.509,0.904 2.263,1.214 0.757,0.311 1.566,0.546 2.425,0.701 0.859,0.155 1.805,0.234 2.838,0.234 1.152,0 2.188,-0.125 3.103,-0.374l0 -0.008c0.896,-0.244 1.707,-0.608 2.432,-1.091 0.665,-0.443 1.15,-0.915 1.446,-1.412 0.26,-0.438 0.39,-0.927 0.386,-1.463 -0.008,-0.737 -0.164,-1.383 -0.463,-1.937 -0.298,-0.552 -0.757,-1.035 -1.369,-1.445 -0.757,-0.507 -1.75,-0.992 -2.978,-1.442 -1.256,-0.46 -2.723,-0.872 -4.399,-1.225 -2.26,-0.476 -4.284,-1.095 -6.065,-1.866 -1.841,-0.797 -3.417,-1.756 -4.722,-2.884 -1.394,-1.206 -2.44,-2.645 -3.136,-4.314 -0.681,-1.633 -1.023,-3.464 -1.023,-5.492 0,-1.415 0.191,-2.757 0.57,-4.025 0.385,-1.284 0.961,-2.477 1.724,-3.574 0.753,-1.08 1.657,-2.041 2.708,-2.879 1.027,-0.817 2.195,-1.513 3.502,-2.082 1.284,-0.559 2.643,-0.98 4.074,-1.256 1.423,-0.275 2.91,-0.414 4.459,-0.414 1.391,0 2.757,0.116 4.094,0.343 1.325,0.227 2.622,0.571 3.886,1.03 1.221,0.443 2.34,0.978 3.364,1.587l0.008 0c1.076,0.642 2.027,1.358 2.861,2.134 0.617,0.574 1.107,1.171 1.456,1.806l0 0.008c0.407,0.743 0.62,1.513 0.62,2.33 0,0.631 -0.126,1.243 -0.375,1.834 -0.239,0.565 -0.583,1.082 -1.03,1.546 -0.471,0.489 -0.998,0.859 -1.577,1.108 -0.591,0.254 -1.222,0.382 -1.889,0.382 -0.505,0 -1.001,-0.077 -1.476,-0.242 -0.509,-0.18 -0.964,-0.453 -1.35,-0.827 -0.45,-0.437 -0.991,-0.853 -1.625,-1.24 -0.636,-0.389 -1.369,-0.75 -2.203,-1.075 -0.862,-0.337 -1.69,-0.588 -2.481,-0.749 -0.761,-0.156 -1.522,-0.234 -2.283,-0.234 -1.241,0 -2.325,0.12 -3.251,0.359l-0.008 0c-0.86,0.222 -1.609,0.555 -2.245,0.997 -0.568,0.396 -0.982,0.831 -1.238,1.301 -0.244,0.448 -0.367,0.976 -0.367,1.582 0,1.326 0.52,2.332 1.558,3.015 0.704,0.464 1.608,0.906 2.71,1.319 1.128,0.422 2.448,0.807 3.957,1.145 1.709,0.382 3.24,0.781 4.585,1.2 1.407,0.439 2.666,0.913 3.777,1.429 1.191,0.552 2.253,1.219 3.182,1.996 0.936,0.783 1.742,1.689 2.419,2.716 0.69,1.049 1.203,2.236 1.537,3.558 0.322,1.276 0.483,2.681 0.483,4.212 0,1.408 -0.2,2.749 -0.6,4.017 -0.399,1.263 -1.003,2.455 -1.81,3.573 -0.782,1.083 -1.708,2.049 -2.777,2.894 -1.055,0.835 -2.24,1.546 -3.55,2.13 -1.292,0.576 -2.657,1.012 -4.089,1.302 -1.432,0.291 -2.9,0.438 -4.397,0.438z"/>
  </g>
 </g>
</svg>
