<?xml version="1.0" encoding="UTF-8"?>
<!DOCTYPE svg PUBLIC "-//W3C//DTD SVG 1.1//EN" "http://www.w3.org/Graphics/SVG/1.1/DTD/svg11.dtd">
<!-- Creator: CorelDRAW 2019 (64-Bit) -->
<svg xmlns="http://www.w3.org/2000/svg" xml:space="preserve" width="100%" height="100%" version="1.1" shape-rendering="geometricPrecision" text-rendering="geometricPrecision" image-rendering="optimizeQuality" fill-rule="evenodd" clip-rule="evenodd"
viewBox="0 0 480.27 166.756"
 xmlns:xlink="http://www.w3.org/1999/xlink">
 <g id="Layer_x0020_1">
  <metadata id="CorelCorpID_0Corel-Layer"/>
  <g id="_1803820254592">
   <path fill="#BF1E2E" d="M101.748 0l344.139 0c18.912,0 34.383,15.472 34.383,34.383l0 97.99c0,18.911 -15.471,34.383 -34.383,34.383l-344.139 0c-18.912,0 -34.383,-15.472 -34.383,-34.383l0 -97.99c0,-18.911 15.471,-34.383 34.383,-34.383z"/>
   <path fill="white" d="M24.059 0l68.568 0c13.233,0 24.059,10.826 24.059,24.059l0 118.638c0,13.233 -10.826,24.059 -24.059,24.059l-68.568 0c-13.233,0 -24.059,-10.826 -24.059,-24.059l0 -118.638c0,-13.233 10.826,-24.059 24.059,-24.059z"/>
   <path fill="#BF1E2E" fill-rule="nonzero" d="M84.349 74.049c2.244,0.446 4.257,1.559 5.821,3.123l0.014 0.014c2.06,2.061 3.34,4.902 3.34,8.024l0 39.727c0,4.384 -1.792,8.368 -4.677,11.254 -2.886,2.885 -6.87,4.677 -11.254,4.677l-38.5 0c-4.385,0 -8.369,-1.792 -11.254,-4.677 -2.885,-2.886 -4.677,-6.87 -4.677,-11.254l0 -39.727c0,-3.122 1.28,-5.963 3.339,-8.024l0.015 -0.014c1.564,-1.564 3.577,-2.677 5.821,-3.123l0 -5.389 52.012 0 0 5.389zm-30.281 19.546l4.275 4.275 4.275 -4.275c3.548,-3.549 9.354,-3.549 12.901,0l0 0c3.549,3.548 3.549,9.353 0,12.901l-17.132 17.133 -0.044 -0.044 -0.044 0.044 -17.132 -17.133c-3.548,-3.548 -3.548,-9.353 0,-12.901l0 0c3.548,-3.549 9.353,-3.549 12.901,0zm-2.233 -67.707c6.034,0 11.101,4.138 12.519,9.731 -6.707,0.33 -12.044,5.872 -12.044,12.661 0,1.179 0.161,2.32 0.462,3.403 -0.309,0.022 -0.621,0.034 -0.937,0.034 -7.132,0 -12.914,-5.782 -12.914,-12.914 0,-7.133 5.782,-12.915 12.914,-12.915zm13.151 11.255c6.151,0 11.137,4.987 11.137,11.137 0,2.279 -0.684,4.397 -1.858,6.162l-18.557 0c-1.174,-1.765 -1.858,-3.883 -1.858,-6.162 0,-6.15 4.986,-11.137 11.136,-11.137zm-27.732 19.195l42.178 0c2.704,0 4.917,2.212 4.917,4.917l0 0c0,2.704 -2.213,4.916 -4.917,4.916l-42.178 0c-2.704,0 -4.917,-2.212 -4.917,-4.916l0 0c0,-2.705 2.213,-4.917 4.917,-4.917zm44.892 25.077l-47.606 0c-1.046,0 -1.997,0.425 -2.685,1.11 -0.685,0.689 -1.11,1.639 -1.11,2.685l0 39.727c0,2.292 0.94,4.378 2.455,5.893 1.515,1.514 3.601,2.455 5.893,2.455l38.5 0c2.292,0 4.378,-0.941 5.893,-2.455 1.514,-1.515 2.455,-3.601 2.455,-5.893l0 -39.727c0,-1.046 -0.425,-1.996 -1.11,-2.685 -0.689,-0.685 -1.639,-1.11 -2.685,-1.11z"/>
   <path fill="white" fill-rule="nonzero" d="M147.113 43.27l-7.776 0c-1.943,0 -3.563,-0.654 -4.859,-1.962 -1.296,-1.309 -1.944,-2.944 -1.944,-4.906 0,-2.022 0.648,-3.701 1.944,-5.039 1.296,-1.338 2.916,-2.007 4.859,-2.007l30.926 0c1.944,0 3.564,0.669 4.86,2.007 1.296,1.338 1.944,3.017 1.944,5.039 0,1.962 -0.648,3.597 -1.944,4.906 -1.296,1.308 -2.916,1.962 -4.86,1.962l-7.775 0 0 41.831c0,2.14 -0.752,3.968 -2.254,5.484 -1.502,1.517 -3.313,2.275 -5.433,2.275 -2.121,0 -3.933,-0.758 -5.435,-2.275 -1.502,-1.516 -2.253,-3.344 -2.253,-5.484l0 -41.831zm40.153 12.219c1.237,-1.903 2.842,-3.463 4.815,-4.683 1.973,-1.219 4.079,-1.828 6.318,-1.828 2.062,0 3.711,0.609 4.948,1.828 1.237,1.22 1.856,2.721 1.856,4.504 0,1.725 -0.619,3.211 -1.856,4.46 -1.237,1.249 -2.71,1.873 -4.418,1.873 -0.472,0 -1.061,-0.089 -1.767,-0.267 -0.648,-0.179 -1.267,-0.268 -1.856,-0.268 -2.533,0 -4.506,0.862 -5.92,2.587 -1.414,1.724 -2.12,4.132 -2.12,7.224l0 14.895c0,1.962 -0.678,3.627 -2.033,4.995 -1.354,1.367 -3.004,2.051 -4.948,2.051 -1.944,0 -3.593,-0.684 -4.948,-2.051 -1.355,-1.368 -2.032,-3.033 -2.032,-4.995l0 -29.79c0,-1.962 0.677,-3.627 2.032,-4.995 1.355,-1.367 3.004,-2.051 4.948,-2.051 1.885,0 3.49,0.624 4.816,1.873 1.325,1.249 2.047,2.795 2.165,4.638zm63.303 0.535l0 29.79c0,1.962 -0.678,3.627 -2.033,4.995 -1.354,1.367 -3.004,2.051 -4.948,2.051 -1.885,0 -3.49,-0.624 -4.815,-1.873 -1.326,-1.249 -2.047,-2.795 -2.165,-4.638 -1.296,1.843 -3.167,3.389 -5.611,4.638 -2.445,1.249 -5.139,1.873 -8.085,1.873 -5.773,0 -10.647,-2.111 -14.623,-6.332 -3.977,-4.222 -5.965,-9.425 -5.965,-15.609 0,-6.184 1.988,-11.387 5.965,-15.609 3.976,-4.221 8.85,-6.332 14.623,-6.332 2.946,0 5.64,0.624 8.085,1.873 2.444,1.249 4.315,2.795 5.611,4.638 0.118,-1.843 0.839,-3.389 2.165,-4.638 1.325,-1.249 2.93,-1.873 4.815,-1.873 1.944,0 3.594,0.684 4.948,2.051 1.355,1.368 2.033,3.033 2.033,4.995zm-17.319 21.852c1.885,-1.903 2.828,-4.222 2.828,-6.957 0,-2.735 -0.943,-5.054 -2.828,-6.957 -1.885,-1.903 -4.182,-2.854 -6.892,-2.854 -2.71,0 -5.007,0.951 -6.892,2.854 -1.885,1.903 -2.828,4.222 -2.828,6.957 0,2.735 0.943,5.054 2.828,6.957 1.885,1.903 4.182,2.854 6.892,2.854 2.71,0 5.007,-0.951 6.892,-2.854zm22.392 7.938l0 -54.942c0,-1.962 0.678,-3.627 2.032,-4.994 1.355,-1.368 3.005,-2.052 4.948,-2.052 1.944,0 3.594,0.684 4.949,2.052 1.355,1.367 2.033,3.032 2.033,4.994l0 35.142 16.08 -15.074c1.356,-1.308 2.887,-1.962 4.595,-1.962 1.767,0 3.255,0.609 4.462,1.828 1.208,1.22 1.812,2.721 1.812,4.504 0,1.666 -0.56,3.122 -1.679,4.371l-10.957 10.168 12.282 12.219c1.178,1.189 1.768,2.676 1.768,4.46 0,1.783 -0.604,3.285 -1.812,4.504 -1.207,1.219 -2.695,1.828 -4.462,1.828 -1.885,0 -3.505,-0.684 -4.86,-2.051l-17.229 -17.125 0 12.13c0,1.962 -0.678,3.627 -2.033,4.995 -1.355,1.367 -3.005,2.051 -4.949,2.051 -1.943,0 -3.593,-0.684 -4.948,-2.051 -1.354,-1.368 -2.032,-3.033 -2.032,-4.995zm49.696 0l0 -24.528 -1.944 0c-1.532,0 -2.843,-0.55 -3.933,-1.65 -1.089,-1.1 -1.634,-2.423 -1.634,-3.969 0,-1.546 0.545,-2.869 1.634,-3.969 1.09,-1.1 2.401,-1.65 3.933,-1.65l1.944 0 0 -5.797c0,-1.963 0.677,-3.627 2.032,-4.995 1.355,-1.367 3.004,-2.051 4.948,-2.051 1.944,0 3.593,0.684 4.948,2.051 1.355,1.368 2.033,3.032 2.033,4.995l0 5.797 4.594 0c1.532,0 2.843,0.55 3.932,1.65 1.09,1.1 1.635,2.423 1.635,3.969 0,1.546 -0.545,2.869 -1.635,3.969 -1.089,1.1 -2.4,1.65 -3.932,1.65l-4.594 0 0 24.528c0,1.962 -0.678,3.627 -2.033,4.995 -1.355,1.367 -3.004,2.051 -4.948,2.051 -1.944,0 -3.593,-0.684 -4.948,-2.051 -1.355,-1.368 -2.032,-3.033 -2.032,-4.995zm67.543 -17.392c0.236,1.843 -0.176,3.329 -1.237,4.459 -1.06,1.13 -2.503,1.695 -4.329,1.695l-24.829 0c1.296,4.221 4.388,6.333 9.277,6.333 2.887,0 5.42,-0.803 7.6,-2.409 1.354,-1.01 2.739,-1.516 4.153,-1.516 1.767,0 3.239,0.58 4.418,1.739 1.177,1.16 1.767,2.602 1.767,4.326 0,2.021 -0.884,3.716 -2.652,5.084 -3.946,3.151 -9.1,4.727 -15.463,4.727 -7.068,0 -12.797,-2.066 -17.185,-6.199 -4.389,-4.132 -6.583,-9.38 -6.583,-15.742 0,-6.184 2.209,-11.387 6.627,-15.609 4.418,-4.221 9.808,-6.332 16.17,-6.332 5.773,0 10.765,1.843 14.977,5.53 4.212,3.687 6.642,8.324 7.289,13.914zm-30.307 -2.944l16.966 0c-0.59,-1.605 -1.65,-2.913 -3.182,-3.924 -1.531,-1.011 -3.298,-1.516 -5.301,-1.516 -2.004,0 -3.77,0.505 -5.302,1.516 -1.532,1.011 -2.592,2.319 -3.181,3.924zm76.203 2.944c0.236,1.843 -0.177,3.329 -1.236,4.459 -1.061,1.13 -2.504,1.695 -4.33,1.695l-24.829 0c1.296,4.221 4.388,6.333 9.278,6.333 2.886,0 5.419,-0.803 7.599,-2.409 1.354,-1.01 2.739,-1.516 4.152,-1.516 1.768,0 3.24,0.58 4.418,1.739 1.179,1.16 1.767,2.602 1.767,4.326 0,2.021 -0.883,3.716 -2.65,5.084 -3.947,3.151 -9.101,4.727 -15.463,4.727 -7.069,0 -12.798,-2.066 -17.186,-6.199 -4.389,-4.132 -6.583,-9.38 -6.583,-15.742 0,-6.184 2.209,-11.387 6.627,-15.609 4.418,-4.221 9.808,-6.332 16.17,-6.332 5.772,0 10.765,1.843 14.977,5.53 4.212,3.687 6.641,8.324 7.289,13.914zm-30.307 -2.944l16.965 0c-0.589,-1.605 -1.649,-2.913 -3.181,-3.924 -1.531,-1.011 -3.299,-1.516 -5.301,-1.516 -2.003,0 -3.77,0.505 -5.302,1.516 -1.531,1.011 -2.592,2.319 -3.181,3.924zm47.222 -9.989c1.237,-1.903 2.842,-3.463 4.815,-4.683 1.974,-1.219 4.079,-1.828 6.318,-1.828 2.062,0 3.71,0.609 4.948,1.828 1.236,1.22 1.855,2.721 1.855,4.504 0,1.725 -0.619,3.211 -1.855,4.46 -1.238,1.249 -2.71,1.873 -4.418,1.873 -0.472,0 -1.06,-0.089 -1.767,-0.267 -0.648,-0.179 -1.267,-0.268 -1.856,-0.268 -2.533,0 -4.506,0.862 -5.92,2.587 -1.414,1.724 -2.12,4.132 -2.12,7.224l0 14.895c0,1.962 -0.678,3.627 -2.033,4.995 -1.355,1.367 -3.004,2.051 -4.948,2.051 -1.944,0 -3.594,-0.684 -4.948,-2.051 -1.355,-1.368 -2.033,-3.033 -2.033,-4.995l0 -29.79c0,-1.962 0.678,-3.627 2.033,-4.995 1.354,-1.367 3.004,-2.051 4.948,-2.051 1.884,0 3.49,0.624 4.816,1.873 1.325,1.249 2.046,2.795 2.165,4.638z"/>
   <path fill="white" fill-rule="nonzero" d="M155.593 141.639l-6.95 -17.137 -4.563 16.227c-0.282,1 -0.83,1.803 -1.644,2.41 -0.814,0.607 -1.769,0.911 -2.865,0.911 -1.309,0 -2.397,-0.447 -3.263,-1.339 -0.867,-0.893 -1.3,-2 -1.3,-3.321 0,-0.643 0.124,-1.374 0.371,-2.196l8.913 -29.67c0.461,-1.5 1.504,-2.249 3.131,-2.249 1.521,0 2.582,0.749 3.183,2.249l8.277 20.566 8.277 -20.566c0.602,-1.5 1.663,-2.249 3.184,-2.249 1.627,0 2.67,0.749 3.13,2.249l8.914 29.67c0.247,0.822 0.371,1.553 0.371,2.196 0,1.321 -0.433,2.428 -1.3,3.321 -0.867,0.892 -1.954,1.339 -3.263,1.339 -1.097,0 -2.052,-0.304 -2.865,-0.911 -0.814,-0.607 -1.361,-1.41 -1.645,-2.41l-4.563 -16.227 -6.95 17.137c-0.637,1.607 -1.733,2.411 -3.29,2.411 -1.556,0 -2.652,-0.804 -3.29,-2.411zm61.092 -30.794c3.926,3.677 5.889,8.283 5.889,13.817 0,5.534 -1.954,10.149 -5.862,13.844 -3.909,3.696 -8.586,5.544 -14.034,5.544 -5.447,0 -10.126,-1.848 -14.034,-5.544 -3.908,-3.695 -5.863,-8.31 -5.863,-13.844 0,-5.534 1.955,-10.149 5.863,-13.844 3.908,-3.696 8.587,-5.543 14.034,-5.543 5.448,0 10.116,1.856 14.007,5.57zm-21.594 5.998c-2.052,2.107 -3.078,4.713 -3.078,7.819 0,3.106 1.035,5.722 3.104,7.846 2.07,2.124 4.589,3.187 7.561,3.187 2.971,0 5.491,-1.063 7.561,-3.187 2.069,-2.124 3.103,-4.74 3.103,-7.846 0,-3.106 -1.034,-5.721 -3.103,-7.846 -2.07,-2.124 -4.59,-3.186 -7.561,-3.186 -2.972,0 -5.5,1.071 -7.587,3.213zm34.456 -10.925l12.786 0c1.168,0 2.141,0.401 2.919,1.204 0.778,0.804 1.167,1.812 1.167,3.026 0,1.179 -0.389,2.16 -1.167,2.946 -0.778,0.786 -1.751,1.178 -2.919,1.178l-8.17 0 0 5.035 7.004 0c1.166,0 2.139,0.401 2.917,1.204 0.779,0.804 1.168,1.812 1.168,3.026 0,1.179 -0.389,2.16 -1.168,2.946 -0.778,0.786 -1.751,1.178 -2.917,1.178l-7.004 0 0 7.391 8.648 0c1.167,0 2.14,0.402 2.918,1.205 0.778,0.803 1.167,1.812 1.167,3.026 0,1.178 -0.389,2.16 -1.167,2.946 -0.778,0.785 -1.751,1.178 -2.918,1.178l-13.264 0c-1.274,0 -2.361,-0.455 -3.263,-1.366 -0.902,-0.91 -1.353,-2.008 -1.353,-3.294l0 -28.17c0,-1.285 0.451,-2.383 1.353,-3.294 0.902,-0.91 1.989,-1.365 3.263,-1.365zm44.484 13.763l6.685 0c1.168,0 2.14,0.402 2.918,1.206 0.778,0.803 1.168,1.811 1.168,3.025 0,1.178 -0.39,2.16 -1.168,2.946 -0.778,0.785 -1.75,1.178 -2.918,1.178l-6.685 0 0 11.354c0,1.285 -0.451,2.383 -1.353,3.294 -0.902,0.91 -1.99,1.366 -3.263,1.366 -1.274,0 -2.361,-0.456 -3.263,-1.366 -0.902,-0.911 -1.352,-2.009 -1.352,-3.294l0 -28.813c0,-1.285 0.45,-2.383 1.352,-3.294 0.902,-0.91 1.989,-1.365 3.263,-1.365l12.469 0c1.167,0 2.139,0.401 2.918,1.204 0.778,0.804 1.167,1.812 1.167,3.026 0,1.179 -0.389,2.16 -1.167,2.946 -0.779,0.786 -1.751,1.178 -2.918,1.178l-7.853 0 0 5.409zm29.256 -11.996l12.787 29.777c0.319,0.786 0.478,1.518 0.478,2.196 0,1.213 -0.425,2.249 -1.273,3.106 -0.849,0.857 -1.875,1.286 -3.078,1.286 -2.087,0 -3.554,-1.054 -4.404,-3.16l-1.325 -3.321 -12.947 0 -1.326 3.321c-0.849,2.106 -2.317,3.16 -4.404,3.16 -1.203,0 -2.228,-0.429 -3.077,-1.286 -0.849,-0.857 -1.274,-1.893 -1.274,-3.106 0,-0.678 0.16,-1.41 0.478,-2.196l12.786 -29.777c0.673,-1.607 1.769,-2.41 3.29,-2.41 1.521,0 2.618,0.803 3.289,2.41zm-3.289 13.764l-3.502 8.73 7.004 0 -3.502 -8.73zm24.11 -14.889l16.978 19.548 0 -16.174c0,-1.285 0.451,-2.383 1.353,-3.294 0.902,-0.91 1.989,-1.365 3.263,-1.365 1.274,0 2.361,0.455 3.263,1.365 0.902,0.911 1.353,2.009 1.353,3.294l0 30.902c0,1 -0.265,1.785 -0.796,2.357 -0.53,0.571 -1.22,0.857 -2.069,0.857 -1.132,0 -2.069,-0.429 -2.812,-1.286l-16.978 -19.548 0 16.174c0,1.285 -0.451,2.383 -1.353,3.294 -0.902,0.91 -1.99,1.366 -3.263,1.366 -1.274,0 -2.361,-0.456 -3.263,-1.366 -0.902,-0.911 -1.353,-2.009 -1.353,-3.294l0 -30.902c0,-1 0.265,-1.785 0.796,-2.356 0.53,-0.571 1.22,-0.857 2.069,-0.857 1.132,0 2.069,0.428 2.812,1.285zm48.145 -1.285c5.73,0 10.593,2.017 14.59,6.052 1.026,1.035 1.539,2.178 1.539,3.427 0,1.214 -0.407,2.232 -1.22,3.053 -0.814,0.821 -1.822,1.232 -3.024,1.232 -1.239,0 -2.406,-0.554 -3.502,-1.661 -2.37,-2.499 -5.111,-3.748 -8.224,-3.748 -2.935,0 -5.421,1.062 -7.455,3.186 -2.034,2.125 -3.05,4.74 -3.05,7.846 0,3.178 1.052,5.811 3.157,7.9 2.104,2.088 4.483,3.133 7.136,3.133 2.405,0 4.412,-0.562 6.022,-1.687 1.609,-1.125 2.626,-2.705 3.05,-4.74l-5.252 0c-0.814,0 -1.521,-0.303 -2.122,-0.91 -0.602,-0.607 -0.902,-1.322 -0.902,-2.143 0,-0.821 0.3,-1.535 0.902,-2.142 0.601,-0.607 1.308,-0.91 2.122,-0.91l11.46 0c0.814,0 1.521,0.303 2.123,0.91 0.601,0.607 0.901,1.321 0.901,2.142 0,5.284 -1.706,9.578 -5.12,12.881 -3.413,3.302 -7.79,4.954 -13.131,4.954 -5.341,0 -9.939,-1.848 -13.795,-5.544 -3.855,-3.695 -5.783,-8.31 -5.783,-13.844 0,-5.57 1.928,-10.193 5.783,-13.871 3.856,-3.678 8.454,-5.516 13.795,-5.516zm34.987 16.924c1.556,1.214 2.812,1.821 3.767,1.821 0.919,0 1.556,-0.554 1.91,-1.661 0.565,-1.785 1.697,-2.678 3.395,-2.678 1.273,0 2.299,0.429 3.077,1.286 0.779,0.857 1.009,2.017 0.69,3.481 -0.46,2.214 -1.406,3.972 -2.839,5.275 -1.432,1.303 -3.103,1.955 -5.013,1.955 -2.229,0 -4.439,-0.839 -6.632,-2.517 -1.557,-1.214 -2.813,-1.821 -3.767,-1.821 -0.99,0 -1.627,0.553 -1.91,1.66 -0.213,0.821 -0.628,1.473 -1.247,1.955 -0.619,0.482 -1.335,0.723 -2.149,0.723 -1.273,0 -2.299,-0.429 -3.077,-1.285 -0.778,-0.857 -1.008,-2.018 -0.69,-3.482 0.46,-2.213 1.406,-3.972 2.838,-5.275 1.433,-1.303 3.104,-1.955 5.014,-1.955 2.228,0 4.44,0.84 6.633,2.518z"/>
  </g>
 </g>
</svg>
