<?xml version="1.0" encoding="UTF-8"?>
<!DOCTYPE svg PUBLIC "-//W3C//DTD SVG 1.1//EN" "http://www.w3.org/Graphics/SVG/1.1/DTD/svg11.dtd">
<!-- Creator: CorelDRAW 2019 (64-Bit) -->
<svg xmlns="http://www.w3.org/2000/svg" xml:space="preserve" width="100%" height="100%" version="1.1" shape-rendering="geometricPrecision" text-rendering="geometricPrecision" image-rendering="optimizeQuality" fill-rule="evenodd" clip-rule="evenodd"
viewBox="0 0 6773.32 1693.32"
 xmlns:xlink="http://www.w3.org/1999/xlink">
 <g id="Layer_x0020_1">
  <metadata id="CorelCorpID_0Corel-Layer"/>
  <g id="_2095687419616">
   <path fill="#BF1E2E" d="M1183.28 111.97l5259.94 0c167.58,0 304.71,137.11 304.71,304.7l0 868.42c0,167.59 -137.13,304.7 -304.71,304.7l-5259.94 0c-167.61,0 -304.7,-137.11 -304.7,-304.7l0 -868.42c0,-167.59 137.09,-304.7 304.7,-304.7z"/>
   <path fill="white" fill-rule="nonzero" d="M1811.45 1323.66l0 45.64 6.53 0c17.94,0 26.93,-7.61 26.93,-22.82 0,-15.21 -8.99,-22.82 -26.93,-22.82l-6.53 0zm-1481.35 -1211.69l868.42 0c167.59,0 304.71,137.11 304.71,304.7l0 868.42c0,167.59 -137.12,304.7 -304.71,304.7l-868.42 0c-167.58,0 -304.7,-137.11 -304.7,-304.7l0 -868.42c0,-167.59 137.12,-304.7 304.7,-304.7zm1558.48 357.56l-98.47 0c-24.62,0 -45.14,-8.28 -61.55,-24.84 -16.42,-16.57 -24.62,-37.28 -24.62,-62.13 0,-25.6 8.2,-46.88 24.62,-63.82 16.41,-16.95 36.93,-25.42 61.55,-25.42l391.67 0c24.63,0 45.15,8.47 61.54,25.42 16.42,16.94 24.63,38.22 24.63,63.82 0,24.85 -8.21,45.56 -24.63,62.13 -16.39,16.56 -36.91,24.84 -61.54,24.84l-98.48 0 0 529.79c0,27.11 -9.5,50.27 -28.54,69.47 -19.02,19.2 -41.96,28.81 -68.81,28.81 -26.87,0 -49.8,-9.61 -68.83,-28.81 -19.02,-19.2 -28.54,-42.36 -28.54,-69.47l0 -529.79zm576.34 154.77c15.66,-24.11 35.98,-43.87 60.98,-59.31 24.98,-15.44 51.66,-23.15 80,-23.15 26.12,0 47.01,7.71 62.67,23.15 15.68,15.44 23.51,34.45 23.51,57.04 0,21.84 -7.83,40.67 -23.51,56.48 -15.66,15.82 -34.32,23.72 -55.96,23.72 -5.95,0 -13.42,-1.13 -22.37,-3.38 -8.21,-2.26 -16.04,-3.39 -23.5,-3.39 -32.08,0 -57.07,10.91 -74.97,32.75 -17.9,21.84 -26.85,52.34 -26.85,91.51l0 188.63c0,24.85 -8.59,45.94 -25.76,63.26 -17.14,17.32 -38.04,25.99 -62.66,25.99 -24.62,0 -45.51,-8.67 -62.67,-25.99 -17.15,-17.32 -25.73,-38.41 -25.73,-63.26l0 -377.28c0,-24.85 8.58,-45.94 25.73,-63.26 17.16,-17.32 38.05,-25.97 62.67,-25.97 23.88,0 44.2,7.9 61,23.71 16.78,15.81 25.91,35.4 27.42,58.75zm869.51 6.77l0 377.28c0,24.85 -8.59,45.94 -25.74,63.26 -17.16,17.32 -38.05,25.99 -62.67,25.99 -23.87,0 -44.21,-7.92 -60.99,-23.73 -16.79,-15.81 -25.93,-35.39 -27.42,-58.74 -16.42,23.35 -40.1,42.93 -71.05,58.74 -30.96,15.81 -65.1,23.73 -102.4,23.73 -73.12,0 -134.85,-26.74 -185.21,-80.21 -50.35,-53.46 -75.54,-119.36 -75.54,-197.67 0,-78.32 25.19,-144.22 75.54,-197.69 50.36,-53.47 112.09,-80.19 185.21,-80.19 37.3,0 71.44,7.9 102.4,23.71 30.95,15.81 54.63,35.4 71.05,58.75 1.49,-23.35 10.63,-42.94 27.42,-58.75 16.78,-15.81 37.12,-23.71 60.99,-23.71 24.62,0 45.51,8.65 62.67,25.97 17.15,17.32 25.74,38.41 25.74,63.26zm-219.35 276.75c23.88,-24.1 35.82,-53.47 35.82,-88.1 0,-34.65 -11.94,-64.02 -35.82,-88.12 -23.87,-24.1 -52.97,-36.14 -87.29,-36.14 -34.31,0 -63.4,12.04 -87.28,36.14 -23.88,24.1 -35.8,53.47 -35.8,88.12 0,34.63 11.92,64 35.8,88.1 23.88,24.1 52.97,36.15 87.28,36.15 34.32,0 63.42,-12.05 87.29,-36.15zm351.39 100.53l0 -695.83c0,-24.85 8.59,-45.93 25.75,-63.26 17.15,-17.31 38.04,-25.97 62.67,-25.97 24.61,0 45.5,8.66 62.65,25.97 17.17,17.33 25.76,38.41 25.76,63.26l0 445.06 203.66 -190.9c17.16,-16.57 36.56,-24.84 58.19,-24.84 22.39,0 41.22,7.71 56.52,23.15 15.29,15.44 22.94,34.45 22.94,57.04 0,21.09 -7.09,39.54 -21.27,55.35l-138.76 128.78 155.56 154.75c14.91,15.06 22.37,33.89 22.37,56.48 0,22.6 -7.64,41.61 -22.94,57.04 -15.29,15.44 -34.13,23.17 -56.51,23.17 -23.88,0 -44.4,-8.67 -61.55,-25.99l-218.21 -216.88 0 153.62c0,24.85 -8.59,45.94 -25.76,63.26 -17.15,17.32 -38.04,25.99 -62.65,25.99 -24.63,0 -45.52,-8.67 -62.67,-25.99 -17.16,-17.32 -25.75,-38.41 -25.75,-63.26zm697.19 0l0 -310.63 -24.63 0c-19.39,0 -35.99,-6.97 -49.8,-20.9 -13.8,-13.94 -20.69,-30.69 -20.69,-50.27 0,-19.58 6.89,-36.33 20.69,-50.26 13.81,-13.94 30.41,-20.9 49.8,-20.9l24.63 0 0 -73.43c0,-24.85 8.57,-45.94 25.73,-63.25 17.16,-17.33 38.05,-25.98 62.67,-25.98 24.62,0 45.52,8.65 62.66,25.98 17.17,17.31 25.74,38.4 25.74,63.25l0 73.43 58.19 0c19.4,0 36.01,6.96 49.82,20.9 13.78,13.93 20.68,30.68 20.68,50.26 0,19.58 -6.9,36.33 -20.68,50.27 -13.81,13.93 -30.42,20.9 -49.82,20.9l-58.19 0 0 310.63c0,24.85 -8.57,45.94 -25.74,63.26 -17.14,17.32 -38.04,25.99 -62.66,25.99 -24.62,0 -45.51,-8.67 -62.67,-25.99 -17.16,-17.32 -25.73,-38.41 -25.73,-63.26zm923.24 -220.27c2.98,23.35 -2.24,42.18 -15.68,56.48 -13.43,14.31 -31.71,21.47 -54.83,21.47l-314.47 0c16.42,53.46 55.59,80.2 117.51,80.2 36.55,0 68.64,-10.17 96.24,-30.5 17.16,-12.81 34.69,-19.21 52.59,-19.21 22.38,0 41.04,7.34 55.96,22.03 14.93,14.68 22.38,32.95 22.38,54.79 0,25.6 -11.19,47.07 -33.56,64.38 -50,39.92 -115.28,59.88 -195.85,59.88 -89.52,0 -162.08,-26.17 -217.65,-78.52 -55.59,-52.34 -83.37,-118.79 -83.37,-199.36 0,-78.32 27.97,-144.22 83.93,-197.69 55.94,-53.47 124.21,-80.19 204.78,-80.19 73.12,0 136.35,23.34 189.69,70.03 53.33,46.68 84.11,105.43 92.33,176.21zm-383.86 -37.27l214.88 0c-7.47,-20.34 -20.89,-36.91 -40.3,-49.71 -19.4,-12.8 -41.77,-19.2 -67.14,-19.2 -25.36,0 -47.75,6.4 -67.14,19.2 -19.39,12.8 -32.84,29.37 -40.3,49.71zm1032.91 37.27c2.99,23.35 -2.24,42.18 -15.67,56.48 -13.43,14.31 -31.71,21.47 -54.84,21.47l-314.46 0c16.41,53.46 55.59,80.2 117.51,80.2 36.55,0 68.64,-10.17 96.23,-30.5 17.17,-12.81 34.7,-19.21 52.6,-19.21 22.38,0 41.04,7.34 55.95,22.03 14.92,14.68 22.39,32.95 22.39,54.79 0,25.6 -11.19,47.07 -33.57,64.38 -50,39.92 -115.27,59.88 -195.84,59.88 -89.52,0 -162.08,-26.17 -217.65,-78.52 -55.59,-52.34 -83.38,-118.79 -83.38,-199.36 0,-78.32 27.98,-144.22 83.93,-197.69 55.95,-53.47 124.22,-80.19 204.79,-80.19 73.11,0 136.35,23.34 189.69,70.03 53.33,46.68 84.1,105.43 92.32,176.21zm-383.85 -37.27l214.86 0c-7.45,-20.34 -20.87,-36.91 -40.28,-49.71 -19.4,-12.8 -41.77,-19.2 -67.14,-19.2 -25.37,0 -47.75,6.4 -67.15,19.2 -19.4,12.8 -32.83,29.37 -40.29,49.71zm665.86 -126.51c15.66,-24.11 35.98,-43.87 60.98,-59.31 24.99,-15.44 51.66,-23.15 80.01,-23.15 26.11,0 47,7.71 62.67,23.15 15.67,15.44 23.5,34.45 23.5,57.04 0,21.84 -7.83,40.67 -23.5,56.48 -15.67,15.82 -34.33,23.72 -55.96,23.72 -5.96,0 -13.42,-1.13 -22.38,-3.38 -8.21,-2.26 -16.04,-3.39 -23.5,-3.39 -32.08,0 -57.07,10.91 -74.97,32.75 -17.9,21.84 -26.85,52.34 -26.85,91.51l0 188.63c0,24.85 -8.59,45.94 -25.76,63.26 -17.15,17.32 -38.04,25.99 -62.66,25.99 -24.62,0 -45.51,-8.67 -62.66,-25.99 -17.16,-17.32 -25.75,-38.41 -25.75,-63.26l0 -377.28c0,-24.85 8.59,-45.94 25.75,-63.26 17.15,-17.32 38.04,-25.97 62.66,-25.97 23.87,0 44.21,7.9 61,23.71 16.78,15.81 25.91,35.4 27.42,58.75zm-4206.51 624.28l0 33.63 8.24 0c13.02,0 19.55,-5.6 19.55,-16.81 0,-11.22 -6.53,-16.82 -19.55,-16.82l-8.24 0zm-24.66 -44.74l29.2 0c21.74,0 38.74,5.2 51.02,15.62 12.29,10.41 18.44,24.02 18.44,40.84 0,17.61 -7.18,31.52 -21.55,41.73 10.77,4.41 19.08,11.07 24.94,19.98 5.86,8.9 8.79,19.56 8.79,31.98 0,17.82 -6.94,32.27 -20.83,43.39 -13.9,11.11 -33.88,16.67 -59.96,16.67l-30.05 0c-6.8,0 -12.61,-2.55 -17.43,-7.67 -4.82,-5.09 -7.22,-11.25 -7.22,-18.46l0 -157.95c0,-7.22 2.4,-13.37 7.22,-18.47 4.82,-5.11 10.63,-7.66 17.43,-7.66zm292.82 22.52l0 109.31c0,25.02 -7.55,44.94 -22.67,59.76 -15.12,14.81 -33.17,22.22 -54.13,22.22 -20.99,0 -39.03,-7.41 -54.16,-22.22 -15.12,-14.82 -22.67,-34.74 -22.67,-59.76l0 -109.31c0,-7.2 2.41,-13.36 7.22,-18.47 4.82,-5.1 10.64,-7.66 17.43,-7.66 6.81,0 12.63,2.56 17.45,7.66 4.81,5.11 7.22,11.27 7.22,18.47l0 110.81c0,10.61 2.51,18.87 7.51,24.77 5.01,5.91 11.67,8.86 20,8.86 8.3,0 14.96,-2.95 19.97,-8.86 5.01,-5.9 7.52,-14.16 7.52,-24.77l0 -110.81c0,-7.2 2.4,-13.36 7.22,-18.47 4.82,-5.1 10.63,-7.66 17.43,-7.66 6.81,0 12.62,2.56 17.44,7.66 4.82,5.11 7.22,11.27 7.22,18.47zm123.31 -12.61l68.32 166.97c1.7,4.4 2.55,8.5 2.55,12.31 0,6.8 -2.27,12.61 -6.79,17.41 -4.55,4.81 -10.03,7.21 -16.45,7.21 -11.15,0 -18.99,-5.91 -23.53,-17.72l-7.09 -18.62 -69.17 0 -7.07 18.62c-4.55,11.81 -12.38,17.72 -23.54,17.72 -6.43,0 -11.9,-2.4 -16.44,-7.21 -4.53,-4.8 -6.81,-10.61 -6.81,-17.41 0,-3.81 0.86,-7.91 2.56,-12.31l68.32 -166.97c3.59,-9.01 9.44,-13.52 17.57,-13.52 8.13,0 13.99,4.51 17.57,13.52zm-17.57 77.18l-18.7 48.95 37.41 0 -18.71 -48.95zm133.51 -40.25l-24.94 0c-6.25,0 -11.44,-2.19 -15.59,-6.6 -4.16,-4.41 -6.24,-9.91 -6.24,-16.52 0,-6.8 2.08,-12.46 6.24,-16.97 4.15,-4.5 9.34,-6.75 15.59,-6.75l99.22 0c6.23,0 11.42,2.25 15.58,6.75 4.16,4.51 6.23,10.17 6.23,16.97 0,6.61 -2.07,12.11 -6.23,16.52 -4.16,4.41 -9.35,6.6 -15.58,6.6l-24.96 0 0 140.84c0,7.22 -2.4,13.37 -7.22,18.47 -4.81,5.11 -10.63,7.66 -17.43,7.66 -6.8,0 -12.62,-2.55 -17.44,-7.66 -4.81,-5.1 -7.23,-11.25 -7.23,-18.47l0 -140.84zm289.41 0.6c-6.04,-4.2 -11.89,-6.3 -17.57,-6.3 -10.96,0 -16.44,4.31 -16.44,12.92 0,4.39 2.03,8.4 6.1,12 4.06,3.6 11.76,7.81 23.1,12.62 33.06,14.01 49.6,37.33 49.6,69.97 0,19.62 -6.04,35.38 -18.14,47.29 -12.08,11.92 -28.99,17.87 -50.73,17.87 -25.7,0 -47.26,-8.31 -64.64,-24.92 -4.73,-4.41 -7.08,-10.32 -7.08,-17.72 0,-6.41 2.17,-11.92 6.51,-16.52 4.35,-4.61 9.54,-6.91 15.6,-6.91 4.53,0 9.17,2.06 13.88,6.11 9.84,8.76 20.51,13.11 32.04,13.11 7.18,0 12.86,-1.8 17.01,-5.4 4.15,-3.61 6.24,-8.21 6.24,-13.86 0,-6.42 -1.9,-11.66 -5.68,-15.77 -3.77,-4.11 -10.67,-8.31 -20.69,-12.52 -18.53,-7.6 -31.88,-16.66 -40.11,-27.22 -8.22,-10.51 -12.33,-23.68 -12.33,-39.54 0,-15.87 5.48,-29.18 16.44,-39.99 10.97,-10.86 25.41,-16.27 43.37,-16.27 17.58,0 33.44,5.21 47.62,15.62 6.24,4.8 9.35,10.91 9.35,18.32 0,5.8 -1.93,10.86 -5.8,15.16 -3.88,4.31 -8.56,6.46 -14.03,6.46 -4.54,0 -9.08,-1.5 -13.62,-4.51zm98.66 -47.44l68.31 0c6.24,0 11.44,2.25 15.6,6.75 4.16,4.51 6.23,10.17 6.23,16.97 0,6.61 -2.07,12.11 -6.23,16.52 -4.16,4.41 -9.36,6.6 -15.6,6.6l-43.66 0 0 28.23 37.43 0c6.23,0 11.43,2.25 15.59,6.76 4.16,4.5 6.24,10.15 6.24,16.96 0,6.62 -2.08,12.12 -6.24,16.53 -4.16,4.39 -9.36,6.6 -15.59,6.6l-37.43 0 0 41.44 46.21 0c6.24,0 11.45,2.25 15.59,6.75 4.16,4.51 6.25,10.17 6.25,16.98 0,6.6 -2.09,12.1 -6.25,16.51 -4.14,4.41 -9.35,6.61 -15.59,6.61l-70.86 0c-6.81,0 -12.61,-2.55 -17.44,-7.67 -4.82,-5.09 -7.22,-11.25 -7.22,-18.46l0 -157.95c0,-7.22 2.4,-13.37 7.22,-18.47 4.83,-5.11 10.63,-7.66 17.44,-7.66zm223.65 200.29l-37.13 -96.09 -24.39 90.99c-1.5,5.61 -4.44,10.11 -8.78,13.51 -4.35,3.4 -9.44,5.11 -15.31,5.11 -6.99,0 -12.79,-2.51 -17.43,-7.51 -4.63,-5 -6.95,-11.21 -6.95,-18.62 0,-3.6 0.66,-7.7 1.99,-12.31l47.62 -166.36c2.46,-8.42 8.03,-12.62 16.73,-12.62 8.12,0 13.79,4.2 17,12.62l44.22 115.31 44.22 -115.31c3.21,-8.42 8.89,-12.62 17.02,-12.62 8.68,0 14.26,4.2 16.72,12.62l47.62 166.36c1.33,4.61 1.98,8.71 1.98,12.31 0,7.41 -2.31,13.62 -6.94,18.62 -4.63,5 -10.44,7.51 -17.43,7.51 -5.86,0 -10.97,-1.71 -15.31,-5.11 -4.35,-3.4 -7.28,-7.9 -8.79,-13.51l-24.37 -90.99 -37.15 96.09c-3.39,9.02 -9.25,13.52 -17.57,13.52 -8.31,0 -14.17,-4.5 -17.57,-13.52zm271.56 -190.38l68.33 166.97c1.69,4.4 2.55,8.5 2.55,12.31 0,6.8 -2.28,12.61 -6.81,17.41 -4.54,4.81 -10.02,7.21 -16.44,7.21 -11.15,0 -18.99,-5.91 -23.53,-17.72l-7.09 -18.62 -69.17 0 -7.07 18.62c-4.55,11.81 -12.39,17.72 -23.54,17.72 -6.43,0 -11.9,-2.4 -16.44,-7.21 -4.53,-4.8 -6.8,-10.61 -6.8,-17.41 0,-3.81 0.85,-7.91 2.56,-12.31l68.31 -166.97c3.59,-9.01 9.44,-13.52 17.57,-13.52 8.13,0 13.99,4.51 17.57,13.52zm-17.57 77.18l-18.7 48.95 37.41 0 -18.71 -48.95zm145.98 -83.49l90.72 109.61 0 -90.69c0,-7.2 2.41,-13.36 7.22,-18.47 4.84,-5.1 10.64,-7.66 17.44,-7.66 6.81,0 12.62,2.56 17.43,7.66 4.83,5.11 7.23,11.27 7.23,18.47l0 173.27c0,5.6 -1.42,10.01 -4.24,13.21 -2.84,3.21 -6.53,4.81 -11.07,4.81 -6.04,0 -11.05,-2.4 -15.02,-7.21l-90.71 -109.6 0 90.68c0,7.22 -2.41,13.37 -7.22,18.47 -4.82,5.11 -10.64,7.66 -17.44,7.66 -6.8,0 -12.61,-2.55 -17.44,-7.66 -4.81,-5.1 -7.22,-11.25 -7.22,-18.47l0 -173.27c0,-5.6 1.41,-10.01 4.25,-13.21 2.84,-3.21 6.52,-4.81 11.06,-4.81 6.04,0 11.04,2.41 15.01,7.21zm274.41 -7.21c30.61,0 56.6,11.32 77.95,33.94 5.49,5.8 8.23,12.21 8.23,19.21 0,6.81 -2.18,12.52 -6.53,17.13 -4.34,4.59 -9.73,6.9 -16.15,6.9 -6.62,0 -12.85,-3.11 -18.72,-9.3 -12.65,-14.02 -27.3,-21.03 -43.93,-21.03 -15.68,0 -28.96,5.96 -39.83,17.87 -10.86,11.92 -16.3,26.57 -16.3,44 0,17.81 5.63,32.57 16.87,44.28 11.25,11.72 23.95,17.57 38.13,17.57 12.85,0 23.58,-3.15 32.17,-9.46 8.59,-6.3 14.03,-15.16 16.3,-26.57l-28.07 0c-4.34,0 -8.11,-1.7 -11.32,-5.1 -3.23,-3.41 -4.84,-7.42 -4.84,-12.02 0,-4.61 1.61,-8.61 4.84,-12.01 3.21,-3.4 6.98,-5.11 11.32,-5.11l61.24 0c4.35,0 8.13,1.71 11.34,5.11 3.21,3.4 4.82,7.4 4.82,12.01 0,29.63 -9.12,53.7 -27.37,72.22 -18.22,18.52 -41.62,27.78 -70.15,27.78 -28.53,0 -53.1,-10.36 -73.69,-31.08 -20.62,-20.73 -30.91,-46.6 -30.91,-77.62 0,-31.24 10.29,-57.17 30.91,-77.79 20.59,-20.61 45.16,-30.93 73.69,-30.93zm222.51 13.52l68.33 166.97c1.71,4.4 2.55,8.5 2.55,12.31 0,6.8 -2.26,12.61 -6.8,17.41 -4.54,4.81 -10.03,7.21 -16.45,7.21 -11.15,0 -18.99,-5.91 -23.52,-17.72l-7.09 -18.62 -69.17 0 -7.08 18.62c-4.54,11.81 -12.37,17.72 -23.53,17.72 -6.43,0 -11.91,-2.4 -16.44,-7.21 -4.53,-4.8 -6.81,-10.61 -6.81,-17.41 0,-3.81 0.85,-7.91 2.56,-12.31l68.31 -166.97c3.6,-9.01 9.44,-13.52 17.57,-13.52 8.13,0 13.99,4.51 17.57,13.52zm-17.57 77.18l-18.7 48.95 37.42 0 -18.72 -48.95zm133.51 -40.25l-24.94 0c-6.23,0 -11.43,-2.19 -15.59,-6.6 -4.16,-4.41 -6.24,-9.91 -6.24,-16.52 0,-6.8 2.08,-12.46 6.24,-16.97 4.16,-4.5 9.36,-6.75 15.59,-6.75l99.22 0c6.23,0 11.43,2.25 15.59,6.75 4.16,4.51 6.23,10.17 6.23,16.97 0,6.61 -2.07,12.11 -6.23,16.52 -4.16,4.41 -9.36,6.6 -15.59,6.6l-24.94 0 0 140.84c0,7.22 -2.42,13.37 -7.24,18.47 -4.81,5.11 -10.62,7.66 -17.43,7.66 -6.8,0 -12.61,-2.55 -17.43,-7.66 -4.81,-5.1 -7.24,-11.25 -7.24,-18.47l0 -140.84zm234.14 -43.24l90.72 109.61 0 -90.69c0,-7.2 2.41,-13.36 7.22,-18.47 4.82,-5.1 10.64,-7.66 17.43,-7.66 6.81,0 12.63,2.56 17.44,7.66 4.82,5.11 7.23,11.27 7.23,18.47l0 173.27c0,5.6 -1.42,10.01 -4.25,13.21 -2.84,3.21 -6.52,4.81 -11.06,4.81 -6.04,0 -11.05,-2.4 -15.02,-7.21l-90.71 -109.6 0 90.68c0,7.22 -2.41,13.37 -7.22,18.47 -4.82,5.11 -10.64,7.66 -17.44,7.66 -6.8,0 -12.61,-2.55 -17.44,-7.66 -4.81,-5.1 -7.22,-11.25 -7.22,-18.47l0 -173.27c0,-5.6 1.41,-10.01 4.25,-13.21 2.83,-3.21 6.52,-4.81 11.06,-4.81 6.04,0 11.04,2.41 15.01,7.21zm274.4 -7.21c30.62,0 56.6,11.32 77.96,33.94 5.48,5.8 8.23,12.21 8.23,19.21 0,6.81 -2.18,12.52 -6.53,17.13 -4.34,4.59 -9.73,6.9 -16.16,6.9 -6.61,0 -12.84,-3.11 -18.71,-9.3 -12.65,-14.02 -27.3,-21.03 -43.93,-21.03 -15.69,0 -28.96,5.96 -39.83,17.87 -10.86,11.92 -16.3,26.57 -16.3,44 0,17.81 5.63,32.57 16.87,44.28 11.24,11.72 23.95,17.57 38.13,17.57 12.84,0 23.57,-3.15 32.17,-9.46 8.59,-6.3 14.03,-15.16 16.3,-26.57l-28.07 0c-4.34,0 -8.11,-1.7 -11.33,-5.1 -3.22,-3.41 -4.83,-7.42 -4.83,-12.02 0,-4.61 1.61,-8.61 4.83,-12.01 3.22,-3.4 6.99,-5.11 11.33,-5.11l61.23 0c4.35,0 8.12,1.71 11.35,5.11 3.21,3.4 4.82,7.4 4.82,12.01 0,29.63 -9.13,53.7 -27.37,72.22 -18.23,18.52 -41.62,27.78 -70.16,27.78 -28.52,0 -53.09,-10.36 -73.7,-31.08 -20.6,-20.73 -30.89,-46.6 -30.89,-77.62 0,-31.24 10.29,-57.17 30.89,-77.79 20.61,-20.61 45.18,-30.93 73.7,-30.93zm151.37 3.61l68.33 0c6.23,0 11.42,2.25 15.58,6.75 4.16,4.51 6.23,10.17 6.23,16.97 0,6.61 -2.07,12.11 -6.23,16.52 -4.16,4.41 -9.35,6.6 -15.58,6.6l-43.66 0 0 28.23 37.43 0c6.23,0 11.42,2.25 15.58,6.76 4.16,4.5 6.23,10.15 6.23,16.96 0,6.62 -2.07,12.12 -6.23,16.53 -4.16,4.39 -9.35,6.6 -15.58,6.6l-37.43 0 0 41.44 46.21 0c6.23,0 11.43,2.25 15.58,6.75 4.16,4.51 6.24,10.17 6.24,16.98 0,6.6 -2.08,12.1 -6.24,16.51 -4.15,4.41 -9.35,6.61 -15.58,6.61l-70.88 0c-6.79,0 -12.61,-2.55 -17.43,-7.67 -4.81,-5.09 -7.22,-11.25 -7.22,-18.46l0 -157.95c0,-7.22 2.41,-13.37 7.22,-18.47 4.82,-5.11 10.64,-7.66 17.43,-7.66zm206.08 47.44c-6.04,-4.2 -11.89,-6.3 -17.57,-6.3 -10.96,0 -16.44,4.31 -16.44,12.92 0,4.39 2.03,8.4 6.1,12 4.06,3.6 11.76,7.81 23.1,12.62 33.06,14.01 49.6,37.33 49.6,69.97 0,19.62 -6.04,35.38 -18.14,47.29 -12.1,11.92 -29.01,17.87 -50.74,17.87 -25.7,0 -47.25,-8.31 -64.63,-24.92 -4.73,-4.41 -7.09,-10.32 -7.09,-17.72 0,-6.41 2.17,-11.92 6.53,-16.52 4.34,-4.61 9.53,-6.91 15.58,-6.91 4.54,0 9.17,2.06 13.89,6.11 9.83,8.76 20.51,13.11 32.04,13.11 7.18,0 12.85,-1.8 17.01,-5.4 4.15,-3.61 6.24,-8.21 6.24,-13.86 0,-6.42 -1.9,-11.66 -5.68,-15.77 -3.77,-4.11 -10.67,-8.31 -20.69,-12.52 -18.53,-7.6 -31.88,-16.66 -40.12,-27.22 -8.21,-10.51 -12.32,-23.68 -12.32,-39.54 0,-15.87 5.48,-29.18 16.44,-39.99 10.97,-10.86 25.41,-16.27 43.37,-16.27 17.57,0 33.44,5.21 47.62,15.62 6.24,4.8 9.35,10.91 9.35,18.32 0,5.8 -1.93,10.86 -5.8,15.16 -3.88,4.31 -8.56,6.46 -14.03,6.46 -4.54,0 -9.08,-1.5 -13.62,-4.51zm227.63 -24.92l0 109.31c0,25.02 -7.55,44.94 -22.67,59.76 -15.13,14.81 -33.18,22.22 -54.14,22.22 -20.98,0 -39.03,-7.41 -54.16,-22.22 -15.1,-14.82 -22.66,-34.74 -22.66,-59.76l0 -109.31c0,-7.2 2.4,-13.36 7.21,-18.47 4.84,-5.1 10.64,-7.66 17.44,-7.66 6.81,0 12.62,2.56 17.44,7.66 4.82,5.11 7.22,11.27 7.22,18.47l0 110.81c0,10.61 2.51,18.87 7.51,24.77 5.02,5.91 11.68,8.86 20,8.86 8.31,0 14.98,-2.95 19.98,-8.86 5,-5.9 7.51,-14.16 7.51,-24.77l0 -110.81c0,-7.2 2.41,-13.36 7.23,-18.47 4.82,-5.1 10.63,-7.66 17.44,-7.66 6.79,0 12.61,2.56 17.43,7.66 4.81,5.11 7.22,11.27 7.22,18.47zm86.74 97.3l0 45.64 6.53 0c17.94,0 26.93,-7.61 26.93,-22.82 0,-15.21 -8.99,-22.82 -26.93,-22.82l-6.53 0zm0 -75.08l0 33.63 8.23 0c13.03,0 19.55,-5.6 19.55,-16.81 0,-11.22 -6.52,-16.82 -19.55,-16.82l-8.23 0zm-24.67 -44.74l29.22 0c21.73,0 38.72,5.2 51.01,15.62 12.29,10.41 18.43,24.02 18.43,40.84 0,17.61 -7.18,31.52 -21.55,41.73 10.77,4.41 19.1,11.07 24.94,19.98 5.87,8.9 8.8,19.56 8.8,31.98 0,17.82 -6.95,32.27 -20.84,43.39 -13.88,11.11 -33.87,16.67 -59.95,16.67l-30.06 0c-6.79,0 -12.61,-2.55 -17.43,-7.67 -4.81,-5.09 -7.22,-11.25 -7.22,-18.46l0 -157.95c0,-7.22 2.41,-13.37 7.22,-18.47 4.82,-5.11 10.64,-7.66 17.43,-7.66zm216.58 91.29c8.31,6.81 15.03,10.21 20.12,10.21 4.92,0 8.32,-3.1 10.21,-9.31 3.03,-10.01 9.07,-15.01 18.14,-15.01 6.81,0 12.29,2.4 16.44,7.2 4.16,4.81 5.39,11.32 3.68,19.52 -2.45,12.41 -7.5,22.28 -15.15,29.57 -7.66,7.31 -16.59,10.97 -26.79,10.97 -11.91,0 -23.71,-4.7 -35.44,-14.11 -8.31,-6.81 -15.02,-10.21 -20.12,-10.21 -5.29,0 -8.7,3.1 -10.2,9.3 -1.14,4.61 -3.36,8.26 -6.67,10.97 -3.31,2.7 -7.13,4.05 -11.48,4.05 -6.79,0 -12.29,-2.4 -16.44,-7.21 -4.16,-4.8 -5.39,-11.31 -3.68,-19.51 2.45,-12.42 7.51,-22.28 15.16,-29.59 7.66,-7.31 16.58,-10.95 26.78,-10.95 11.92,0 23.72,4.7 35.44,14.11z"/>
   <path fill="#BF1E2E" fill-rule="nonzero" d="M1028.97 755.94c22.84,4.54 43.33,15.87 59.24,31.78l0.15 0.15c20.96,20.97 33.98,49.89 33.98,81.66l0 404.29c0,44.62 -18.23,85.16 -47.59,114.53 -29.37,29.36 -69.91,47.59 -114.53,47.59l-391.81 0c-44.62,0 -85.17,-18.23 -114.53,-47.59 -29.36,-29.37 -47.6,-69.91 -47.6,-114.53l0 -404.29c0,-31.77 13.02,-60.69 33.99,-81.66l0.15 -0.15c15.91,-15.91 36.39,-27.24 59.24,-31.78l0 -54.85 529.31 0 0 54.85zm-308.16 198.91l43.5 43.51 43.51 -43.51c36.11,-36.11 95.19,-36.11 131.29,0l0 0c36.11,36.11 36.11,95.19 0,131.3l-174.35 174.35 -0.45 -0.44 -0.44 0.44 -174.36 -174.35c-36.11,-36.11 -36.11,-95.19 0,-131.3l0 0c36.11,-36.11 95.19,-36.11 131.3,0zm-22.72 -689.03c61.4,0 112.97,42.11 127.39,99.03 -68.25,3.35 -122.57,59.76 -122.57,128.85 0,11.99 1.65,23.6 4.71,34.62 -3.15,0.23 -6.33,0.35 -9.53,0.35 -72.59,0 -131.43,-58.84 -131.43,-131.43 0,-72.58 58.84,-131.42 131.43,-131.42zm133.83 114.54c62.6,0 113.34,50.74 113.34,113.34 0,23.18 -6.97,44.74 -18.92,62.7l-188.84 0c-11.95,-17.96 -18.92,-39.52 -18.92,-62.7 0,-62.6 50.75,-113.34 113.34,-113.34zm-282.22 195.34l429.23 0c27.52,0 50.04,22.51 50.04,50.03l0 0c0,27.52 -22.52,50.04 -50.04,50.04l-429.23 0c-27.52,0 -50.04,-22.52 -50.04,-50.04l0 0c0,-27.52 22.52,-50.03 50.04,-50.03zm456.85 255.21l-484.48 0c-10.64,0 -20.31,4.32 -27.32,11.29 -6.97,7.01 -11.3,16.68 -11.3,27.33l0 404.29c0,23.32 9.57,44.55 24.99,59.97 15.41,15.41 36.64,24.98 59.97,24.98l391.81 0c23.32,0 44.56,-9.57 59.97,-24.98 15.41,-15.42 24.98,-36.65 24.98,-59.97l0 -404.29c0,-10.65 -4.32,-20.32 -11.3,-27.33 -7,-6.97 -16.67,-11.29 -27.32,-11.29z"/>
  </g>
 </g>
</svg>
